<svg xmlns="http://www.w3.org/2000/svg" viewBox="0 0 512 512" fill="none">
  <path
    d="M256 70L288 74L304 118L341 128L379 106L408 128L397 169L422 197L463 208L467 256L463 304L422 315L397 343L408 384L379 406L341 384L304 394L288 438L256 442L224 438L208 394L171 384L133 406L104 384L115 343L90 315L49 304L45 256L49 208L90 197L115 169L104 128L133 106L171 128L208 118L224 74L256 70Z"
    stroke="#f2ef00"
    stroke-width="7"
    stroke-linejoin="round"
  />
  <circle cx="256" cy="256" r="118" stroke="#f2ef00" stroke-width="7" />
</svg>
